<svg width="20" height="20" viewBox="0 0 20 20" fill="none" xmlns="http://www.w3.org/2000/svg">
<g id="Share" clip-path="url(#clip0_574_946)">
<path id="Vector" d="M16 14.1365C15.24 14.1365 14.56 14.4378 14.04 14.9096L6.91 10.743C6.96 10.512 7 10.2811 7 10.0402C7 9.7992 6.96 9.56827 6.91 9.33735L13.96 5.21084C14.5 5.71285 15.21 6.0241 16 6.0241C17.66 6.0241 19 4.67871 19 3.01205C19 1.34538 17.66 0 16 0C14.34 0 13 1.34538 13 3.01205C13 3.25301 13.04 3.48394 13.09 3.71486L6.04 7.84137C5.5 7.33936 4.79 7.02811 4 7.02811C2.34 7.02811 1 8.37349 1 10.0402C1 11.7068 2.34 13.0522 4 13.0522C4.79 13.0522 5.5 12.741 6.04 12.239L13.16 16.4157C13.11 16.6265 13.08 16.8474 13.08 17.0683C13.08 18.6847 14.39 20 16 20C17.61 20 18.92 18.6847 18.92 17.0683C18.92 15.4518 17.61 14.1365 16 14.1365Z" fill="white"/>
</g>
<defs>
<clipPath id="clip0_574_946">
<rect width="20" height="20" fill="white"/>
</clipPath>
</defs>
</svg>
